<svg width="1728" height="1100" viewBox="0 0 1728 1100" fill="none" xmlns="http://www.w3.org/2000/svg">
<line x1="4.37114e-08" y1="0.52417" x2="1728" y2="0.524321" stroke="white" stroke-opacity="0.05"/>
<line x1="4.37114e-08" y1="9.3833" x2="1728" y2="9.38345" stroke="white" stroke-opacity="0.05"/>
<line x1="4.37114e-08" y1="18.2424" x2="1728" y2="18.2426" stroke="white" stroke-opacity="0.05"/>
<line x1="4.37114e-08" y1="27.1016" x2="1728" y2="27.1017" stroke="white" stroke-opacity="0.05"/>
<line x1="4.37114e-08" y1="35.9607" x2="1728" y2="35.9608" stroke="white" stroke-opacity="0.05"/>
<line x1="4.37114e-08" y1="44.8198" x2="1728" y2="44.82" stroke="white" stroke-opacity="0.05"/>
<line x1="4.37114e-08" y1="53.679" x2="1728" y2="53.6791" stroke="white" stroke-opacity="0.05"/>
<line x1="4.37114e-08" y1="62.5381" x2="1728" y2="62.5382" stroke="white" stroke-opacity="0.05"/>
<line x1="4.37114e-08" y1="71.3972" x2="1728" y2="71.3974" stroke="white" stroke-opacity="0.05"/>
<line x1="4.37114e-08" y1="80.2563" x2="1728" y2="80.2565" stroke="white" stroke-opacity="0.05"/>
<line x1="4.37114e-08" y1="89.1155" x2="1728" y2="89.1156" stroke="white" stroke-opacity="0.05"/>
<line x1="4.37114e-08" y1="97.9746" x2="1728" y2="97.9748" stroke="white" stroke-opacity="0.05"/>
<line x1="4.37114e-08" y1="106.834" x2="1728" y2="106.834" stroke="white" stroke-opacity="0.05"/>
<line x1="4.37114e-08" y1="115.693" x2="1728" y2="115.693" stroke="white" stroke-opacity="0.05"/>
<line x1="4.37114e-08" y1="124.552" x2="1728" y2="124.552" stroke="white" stroke-opacity="0.05"/>
<line x1="4.37114e-08" y1="133.411" x2="1728" y2="133.411" stroke="white" stroke-opacity="0.05"/>
<line x1="4.37114e-08" y1="142.27" x2="1728" y2="142.27" stroke="white" stroke-opacity="0.05"/>
<line x1="4.37114e-08" y1="151.129" x2="1728" y2="151.13" stroke="white" stroke-opacity="0.05"/>
<line x1="4.37114e-08" y1="159.989" x2="1728" y2="159.989" stroke="white" stroke-opacity="0.05"/>
<line x1="4.37114e-08" y1="168.848" x2="1728" y2="168.848" stroke="white" stroke-opacity="0.05"/>
<line x1="4.37114e-08" y1="177.707" x2="1728" y2="177.707" stroke="white" stroke-opacity="0.05"/>
<line x1="4.37114e-08" y1="186.566" x2="1728" y2="186.566" stroke="white" stroke-opacity="0.05"/>
<line x1="4.37114e-08" y1="195.425" x2="1728" y2="195.425" stroke="white" stroke-opacity="0.05"/>
<line x1="4.37114e-08" y1="204.284" x2="1728" y2="204.284" stroke="white" stroke-opacity="0.05"/>
<line x1="4.37114e-08" y1="213.143" x2="1728" y2="213.143" stroke="white" stroke-opacity="0.05"/>
<line x1="4.37114e-08" y1="222.002" x2="1728" y2="222.003" stroke="white" stroke-opacity="0.05"/>
<line x1="4.37114e-08" y1="230.862" x2="1728" y2="230.862" stroke="white" stroke-opacity="0.05"/>
<line x1="4.37114e-08" y1="239.721" x2="1728" y2="239.721" stroke="white" stroke-opacity="0.05"/>
<line x1="4.37114e-08" y1="248.58" x2="1728" y2="248.58" stroke="white" stroke-opacity="0.05"/>
<line x1="4.37114e-08" y1="257.439" x2="1728" y2="257.439" stroke="white" stroke-opacity="0.05"/>
<line x1="4.37114e-08" y1="266.298" x2="1728" y2="266.298" stroke="white" stroke-opacity="0.05"/>
<line x1="4.37114e-08" y1="275.157" x2="1728" y2="275.157" stroke="white" stroke-opacity="0.05"/>
<line x1="4.37114e-08" y1="284.016" x2="1728" y2="284.017" stroke="white" stroke-opacity="0.05"/>
<line x1="4.37114e-08" y1="292.875" x2="1728" y2="292.876" stroke="white" stroke-opacity="0.05"/>
<line x1="4.37114e-08" y1="301.735" x2="1728" y2="301.735" stroke="white" stroke-opacity="0.05"/>
<line x1="4.37114e-08" y1="310.594" x2="1728" y2="310.594" stroke="white" stroke-opacity="0.05"/>
<line x1="4.37114e-08" y1="319.453" x2="1728" y2="319.453" stroke="white" stroke-opacity="0.05"/>
<line x1="4.37114e-08" y1="328.312" x2="1728" y2="328.312" stroke="white" stroke-opacity="0.05"/>
<line x1="4.37114e-08" y1="337.171" x2="1728" y2="337.171" stroke="white" stroke-opacity="0.05"/>
<line x1="4.37114e-08" y1="346.03" x2="1728" y2="346.03" stroke="white" stroke-opacity="0.05"/>
<line x1="4.37114e-08" y1="354.889" x2="1728" y2="354.89" stroke="white" stroke-opacity="0.05"/>
<line x1="4.37114e-08" y1="363.749" x2="1728" y2="363.749" stroke="white" stroke-opacity="0.05"/>
<line x1="4.37114e-08" y1="372.608" x2="1728" y2="372.608" stroke="white" stroke-opacity="0.05"/>
<line x1="4.37114e-08" y1="381.467" x2="1728" y2="381.467" stroke="white" stroke-opacity="0.05"/>
<line x1="4.37114e-08" y1="390.326" x2="1728" y2="390.326" stroke="white" stroke-opacity="0.05"/>
<line x1="4.37114e-08" y1="399.185" x2="1728" y2="399.185" stroke="white" stroke-opacity="0.05"/>
<line x1="4.37114e-08" y1="408.044" x2="1728" y2="408.044" stroke="white" stroke-opacity="0.05"/>
<line x1="4.37114e-08" y1="416.903" x2="1728" y2="416.903" stroke="white" stroke-opacity="0.05"/>
<line x1="4.37114e-08" y1="425.762" x2="1728" y2="425.763" stroke="white" stroke-opacity="0.05"/>
<line x1="4.37114e-08" y1="434.622" x2="1728" y2="434.622" stroke="white" stroke-opacity="0.05"/>
<line x1="4.37114e-08" y1="443.481" x2="1728" y2="443.481" stroke="white" stroke-opacity="0.05"/>
<line x1="4.37114e-08" y1="452.34" x2="1728" y2="452.34" stroke="white" stroke-opacity="0.05"/>
<line x1="4.37114e-08" y1="461.199" x2="1728" y2="461.199" stroke="white" stroke-opacity="0.05"/>
<line x1="4.37114e-08" y1="470.058" x2="1728" y2="470.058" stroke="white" stroke-opacity="0.05"/>
<line x1="4.37114e-08" y1="478.917" x2="1728" y2="478.917" stroke="white" stroke-opacity="0.05"/>
<line x1="4.37114e-08" y1="487.776" x2="1728" y2="487.777" stroke="white" stroke-opacity="0.05"/>
<line x1="4.37114e-08" y1="496.635" x2="1728" y2="496.636" stroke="white" stroke-opacity="0.05"/>
<line x1="4.37114e-08" y1="505.495" x2="1728" y2="505.495" stroke="white" stroke-opacity="0.05"/>
<line x1="4.37114e-08" y1="514.354" x2="1728" y2="514.354" stroke="white" stroke-opacity="0.05"/>
<line x1="4.37114e-08" y1="523.213" x2="1728" y2="523.213" stroke="white" stroke-opacity="0.05"/>
<line x1="4.37114e-08" y1="532.072" x2="1728" y2="532.072" stroke="white" stroke-opacity="0.05"/>
<line x1="4.37114e-08" y1="540.931" x2="1728" y2="540.931" stroke="white" stroke-opacity="0.05"/>
<line x1="4.37114e-08" y1="549.79" x2="1728" y2="549.79" stroke="white" stroke-opacity="0.05"/>
<line x1="4.37114e-08" y1="558.649" x2="1728" y2="558.65" stroke="white" stroke-opacity="0.05"/>
<line x1="4.37114e-08" y1="567.509" x2="1728" y2="567.509" stroke="white" stroke-opacity="0.05"/>
<line x1="4.37114e-08" y1="576.368" x2="1728" y2="576.368" stroke="white" stroke-opacity="0.05"/>
<line x1="4.37114e-08" y1="585.227" x2="1728" y2="585.227" stroke="white" stroke-opacity="0.05"/>
<line x1="4.37114e-08" y1="594.086" x2="1728" y2="594.086" stroke="white" stroke-opacity="0.05"/>
<line x1="4.37114e-08" y1="602.945" x2="1728" y2="602.945" stroke="white" stroke-opacity="0.05"/>
<line x1="4.37114e-08" y1="611.804" x2="1728" y2="611.804" stroke="white" stroke-opacity="0.05"/>
<line x1="4.37114e-08" y1="620.663" x2="1728" y2="620.663" stroke="white" stroke-opacity="0.05"/>
<line x1="4.37114e-08" y1="629.522" x2="1728" y2="629.523" stroke="white" stroke-opacity="0.05"/>
<line x1="4.37114e-08" y1="638.382" x2="1728" y2="638.382" stroke="white" stroke-opacity="0.05"/>
<line x1="4.37114e-08" y1="647.241" x2="1728" y2="647.241" stroke="white" stroke-opacity="0.05"/>
<line x1="4.37114e-08" y1="656.1" x2="1728" y2="656.1" stroke="white" stroke-opacity="0.05"/>
<line x1="4.37114e-08" y1="664.959" x2="1728" y2="664.959" stroke="white" stroke-opacity="0.05"/>
<line x1="4.37114e-08" y1="673.818" x2="1728" y2="673.818" stroke="white" stroke-opacity="0.05"/>
<line x1="4.37114e-08" y1="682.677" x2="1728" y2="682.677" stroke="white" stroke-opacity="0.05"/>
<line x1="4.37114e-08" y1="691.536" x2="1728" y2="691.536" stroke="white" stroke-opacity="0.05"/>
<line x1="4.37114e-08" y1="700.396" x2="1728" y2="700.396" stroke="white" stroke-opacity="0.05"/>
<line x1="4.37114e-08" y1="709.255" x2="1728" y2="709.255" stroke="white" stroke-opacity="0.05"/>
<line x1="4.37114e-08" y1="718.114" x2="1728" y2="718.114" stroke="white" stroke-opacity="0.05"/>
<line x1="4.37114e-08" y1="726.973" x2="1728" y2="726.973" stroke="white" stroke-opacity="0.05"/>
<line x1="4.37114e-08" y1="735.832" x2="1728" y2="735.832" stroke="white" stroke-opacity="0.05"/>
<line x1="4.37114e-08" y1="744.691" x2="1728" y2="744.691" stroke="white" stroke-opacity="0.05"/>
<line x1="4.37114e-08" y1="753.55" x2="1728" y2="753.55" stroke="white" stroke-opacity="0.05"/>
<line x1="4.37114e-08" y1="762.409" x2="1728" y2="762.41" stroke="white" stroke-opacity="0.05"/>
<line x1="4.37114e-08" y1="771.269" x2="1728" y2="771.269" stroke="white" stroke-opacity="0.05"/>
<line x1="4.37114e-08" y1="780.128" x2="1728" y2="780.128" stroke="white" stroke-opacity="0.05"/>
<line x1="4.37114e-08" y1="788.987" x2="1728" y2="788.987" stroke="white" stroke-opacity="0.05"/>
<line x1="4.37114e-08" y1="797.846" x2="1728" y2="797.846" stroke="white" stroke-opacity="0.05"/>
<line x1="4.37114e-08" y1="806.705" x2="1728" y2="806.705" stroke="white" stroke-opacity="0.05"/>
<line x1="4.37114e-08" y1="815.564" x2="1728" y2="815.564" stroke="white" stroke-opacity="0.05"/>
<line x1="4.37114e-08" y1="824.423" x2="1728" y2="824.423" stroke="white" stroke-opacity="0.05"/>
<line x1="4.37114e-08" y1="833.282" x2="1728" y2="833.283" stroke="white" stroke-opacity="0.05"/>
<line x1="4.37114e-08" y1="842.142" x2="1728" y2="842.142" stroke="white" stroke-opacity="0.05"/>
<line x1="4.37114e-08" y1="851.001" x2="1728" y2="851.001" stroke="white" stroke-opacity="0.05"/>
<line x1="4.37114e-08" y1="859.86" x2="1728" y2="859.86" stroke="white" stroke-opacity="0.05"/>
<line x1="4.37114e-08" y1="868.719" x2="1728" y2="868.719" stroke="white" stroke-opacity="0.05"/>
<line x1="4.37114e-08" y1="877.578" x2="1728" y2="877.578" stroke="white" stroke-opacity="0.05"/>
<line x1="4.37114e-08" y1="886.437" x2="1728" y2="886.437" stroke="white" stroke-opacity="0.05"/>
<line x1="4.37114e-08" y1="895.296" x2="1728" y2="895.297" stroke="white" stroke-opacity="0.05"/>
<line x1="4.37114e-08" y1="904.156" x2="1728" y2="904.156" stroke="white" stroke-opacity="0.05"/>
<line x1="4.37114e-08" y1="913.015" x2="1728" y2="913.015" stroke="white" stroke-opacity="0.05"/>
<line x1="4.37114e-08" y1="921.874" x2="1728" y2="921.874" stroke="white" stroke-opacity="0.05"/>
<line x1="4.37114e-08" y1="930.733" x2="1728" y2="930.733" stroke="white" stroke-opacity="0.05"/>
<line x1="4.37114e-08" y1="939.592" x2="1728" y2="939.592" stroke="white" stroke-opacity="0.05"/>
<line x1="4.37114e-08" y1="948.451" x2="1728" y2="948.451" stroke="white" stroke-opacity="0.05"/>
<line x1="4.37114e-08" y1="957.31" x2="1728" y2="957.31" stroke="white" stroke-opacity="0.05"/>
<line x1="4.37114e-08" y1="966.169" x2="1728" y2="966.17" stroke="white" stroke-opacity="0.05"/>
<line x1="4.37114e-08" y1="975.029" x2="1728" y2="975.029" stroke="white" stroke-opacity="0.05"/>
<line x1="4.37114e-08" y1="983.888" x2="1728" y2="983.888" stroke="white" stroke-opacity="0.05"/>
<line x1="4.37114e-08" y1="992.747" x2="1728" y2="992.747" stroke="white" stroke-opacity="0.05"/>
<line x1="4.37114e-08" y1="1001.61" x2="1728" y2="1001.61" stroke="white" stroke-opacity="0.05"/>
<line x1="4.37114e-08" y1="1010.47" x2="1728" y2="1010.47" stroke="white" stroke-opacity="0.05"/>
<line x1="4.37114e-08" y1="1019.32" x2="1728" y2="1019.32" stroke="white" stroke-opacity="0.05"/>
<line x1="4.37114e-08" y1="1028.18" x2="1728" y2="1028.18" stroke="white" stroke-opacity="0.05"/>
<line x1="4.37114e-08" y1="1037.04" x2="1728" y2="1037.04" stroke="white" stroke-opacity="0.05"/>
<line x1="4.37114e-08" y1="1045.9" x2="1728" y2="1045.9" stroke="white" stroke-opacity="0.05"/>
<line x1="4.37114e-08" y1="1054.76" x2="1728" y2="1054.76" stroke="white" stroke-opacity="0.05"/>
<line x1="4.37114e-08" y1="1063.62" x2="1728" y2="1063.62" stroke="white" stroke-opacity="0.05"/>
<line x1="4.37114e-08" y1="1072.48" x2="1728" y2="1072.48" stroke="white" stroke-opacity="0.05"/>
<line x1="4.37114e-08" y1="1081.34" x2="1728" y2="1081.34" stroke="white" stroke-opacity="0.05"/>
<line x1="4.37114e-08" y1="1090.2" x2="1728" y2="1090.2" stroke="white" stroke-opacity="0.05"/>
<line x1="4.37114e-08" y1="1099.06" x2="1728" y2="1099.06" stroke="white" stroke-opacity="0.05"/>
</svg>
