<svg xmlns="http://www.w3.org/2000/svg" width="25" height="24" viewBox="0 0 25 24" fill="none">
  <path d="M22.75 2V1H2.75V2H1.75V22H2.75V23H22.75V22H23.75V2H22.75ZM21.75 21H3.75V3H21.75V21Z" fill="white"/>
  <path d="M15.75 13H16.75V14H17.75V15H18.75V16H17.75V17H16.75V18H15.75V17H14.75V16H13.75V15H11.75V16H10.75V17H9.75V18H8.75V17H7.75V16H6.75V15H7.75V14H8.75V13H9.75V11H8.75V10H7.75V9H6.75V8H7.75V7H8.75V6H9.75V7H10.75V8H11.75V9H13.75V8H14.75V7H15.75V6H16.75V7H17.75V8H18.75V9H17.75V10H16.75V11H15.75V13Z" fill="white"/>
</svg>