<svg xmlns="http://www.w3.org/2000/svg" width="41" height="41" viewBox="0 0 41 41" fill="none">
  <path d="M20.4999 11.8922H22.1988V13.591H18.8011V11.8922H17.1022V10.1933H13.7044V11.8922H10.3066V10.1933H12.0055V8.49438H18.8011V10.1933H20.4999V11.8922Z" fill="black"/>
  <path d="M22.1988 22.0856V23.7845H17.1021V22.0856H13.7043V20.3867H18.801V22.0856H22.1988Z" fill="black"/>
  <path d="M17.1021 13.5911H13.7043V16.9888H17.1021V13.5911Z" fill="black"/>
  <path d="M27.2955 15.29H23.8977V18.6878H27.2955V15.29Z" fill="black"/>
  <path d="M32.392 13.591V16.9887H30.6931V15.2899H28.9942V13.591H25.5964V11.8921H30.6931V13.591H32.392Z" fill="black"/>
  <path d="M23.8975 25.4832V28.8809H22.1986V30.5798H18.8009V33.9776H17.102V37.3753H15.4031V39.0742H8.60757V37.3753H6.90869V27.182H8.60757V25.4832H10.3065V30.5798H13.7042V28.8809H17.102V27.182H20.4998V25.4832H23.8975Z" fill="black"/>
  <path d="M39.1877 15.29V25.4833H37.4888V28.8811H35.7899V32.2789H34.091V33.9778H32.3922V35.6766H28.9944V37.3755H25.5966V39.0744H18.8011V35.6766H25.5966V33.9778H28.9944V32.2789H30.6933V30.58H32.3922V28.8811H34.091V25.4833H35.7899V15.29H34.091V11.8923H32.3922V10.1934H30.6933V8.49451H28.9944V6.79562H25.5966V5.09674H15.4033V6.79562H12.0056V8.49451H10.3067V10.1934H8.60779V11.8923H6.90891V15.29H5.21002V23.7845H6.90891V25.4833H5.21002V27.1822H3.51114V25.4833H1.81226V15.29H3.51114V11.8923H5.21002V8.49451H6.90891V6.79562H8.60779V5.09674H12.0056V3.39786H15.4033V1.69897H25.5966V3.39786H28.9944V5.09674H32.3922V6.79562H34.091V8.49451H35.7899V11.8923H37.4888V15.29H39.1877Z" fill="black"/>
</svg>