<svg xmlns="http://www.w3.org/2000/svg" width="16" height="17" viewBox="0 0 16 17" fill="none">
  <path d="M14.708 2.24878V1.60278H1.78809V2.24878H1.14209V15.1687H1.78809V15.8147H14.708V15.1687H15.354V2.24878H14.708ZM12.124 6.77075H11.478V7.41675H10.832V8.06274H10.186V9.35474H10.832V10.0007H11.478V10.6467H12.124V11.2927H11.478V11.9387H10.832V12.5847H10.186V11.9387H9.54004V11.2927H8.89404V10.6467H7.60205V11.2927H6.95605V11.9387H6.31006V12.5847H5.66406V11.9387H5.01807V11.2927H4.37207V10.6467H5.01807V10.0007H5.66406V9.35474H6.31006V8.06274H5.66406V7.41675H5.01807V6.77075H4.37207V6.12476H5.01807V5.47876H5.66406V4.83276H6.31006V5.47876H6.95605V6.12476H7.60205V6.77075H8.89404V6.12476H9.54004V5.47876H10.186V4.83276H10.832V5.47876H11.478V6.12476H12.124V6.77075Z" fill="#FF5F5B"/>
</svg>