<svg width="232" height="41" viewBox="0 0 232 41" fill="none" xmlns="http://www.w3.org/2000/svg">
<rect x="0.887695" y="0.937256" width="1" height="40" fill="#2835FF"/>
<rect x="3.8877" y="0.937256" width="1" height="40" fill="#2835FF"/>
<rect x="6.8877" y="0.937256" width="1" height="40" fill="#2835FF"/>
<rect x="9.8877" y="0.937256" width="3" height="40" fill="#2835FF"/>
<rect x="14.8877" y="0.937256" width="3" height="40" fill="#2835FF"/>
<rect x="19.8877" y="0.937256" width="8" height="40" fill="#2835FF"/>
<rect x="29.8877" y="0.937256" width="18.107" height="40" fill="#2835FF"/>
<rect x="49.9946" y="0.937256" width="25.708" height="40" fill="#2835FF"/>
<rect x="77.7026" y="0.937256" width="76.5947" height="40" fill="#2835FF"/>
<rect x="156.297" y="0.937256" width="25.708" height="40" fill="#2835FF"/>
<rect x="184.005" y="0.937256" width="18.107" height="40" fill="#2835FF"/>
<rect x="204.112" y="0.937256" width="8" height="40" fill="#2835FF"/>
<rect x="214.112" y="0.937256" width="3" height="40" fill="#2835FF"/>
<rect x="219.112" y="0.937256" width="3" height="40" fill="#2835FF"/>
<rect x="224.112" y="0.937256" width="1" height="40" fill="#2835FF"/>
<rect x="227.112" y="0.937256" width="1" height="40" fill="#2835FF"/>
<rect x="230.112" y="0.937256" width="1" height="40" fill="#2835FF"/>
</svg>
