<svg xmlns="http://www.w3.org/2000/svg" width="54" height="55" viewBox="0 0 54 55" fill="none">
  <g clip-path="url(#clip0_665_293)">
    <path d="M54.0001 44.2062H51.4351V51.9181H54.0001V44.2062Z" fill="black"/>
    <path d="M51.4349 41.6412H48.853V44.2062H51.4349V41.6412Z" fill="black"/>
    <path d="M48.8531 21.0706H51.435V10.7769H54V8.21185H46.2881V10.7769H48.8531V21.0706Z" fill="#2835FF"/>
    <path d="M51.4349 51.9182H2.56494V54.5H51.4349V51.9182Z" fill="black"/>
    <path d="M48.8531 21.0707H46.2881V23.6357H48.8531V21.0707Z" fill="#2835FF"/>
    <path d="M46.2882 46.7881H43.7063V49.3531H46.2882V46.7881Z" fill="black"/>
    <path d="M48.8532 39.0594H41.1414V41.6413H48.8532V39.0594Z" fill="black"/>
    <path d="M46.2882 23.6356H43.7063V26.2174H46.2882V23.6356Z" fill="#2835FF"/>
    <path d="M46.2882 10.7769H41.1414V13.3588H46.2882V10.7769Z" fill="#2835FF"/>
    <path d="M43.7064 18.4887H38.5764V21.0706H43.7064V18.4887Z" fill="#2835FF"/>
    <path d="M41.1414 41.6412H38.5764V44.2062H41.1414V41.6412Z" fill="black"/>
    <path d="M41.1415 13.3588H35.9946V15.9238H41.1415V13.3588Z" fill="#2835FF"/>
    <path d="M38.5765 36.4944H35.9946V41.6413H38.5765V36.4944Z" fill="black"/>
    <path d="M43.7065 26.2175H35.9946V28.7825H43.7065V26.2175Z" fill="#2835FF"/>
    <path d="M38.5765 21.0707H35.9946V23.6357H38.5765V21.0707Z" fill="#2835FF"/>
    <path d="M35.9944 23.6356H33.4294V26.2174H35.9944V23.6356Z" fill="#2835FF"/>
    <path d="M35.9944 15.9237H33.4294V18.4887H35.9944V15.9237Z" fill="#2835FF"/>
    <path d="M35.9943 44.2062H30.8474V49.3531H35.9943V44.2062Z" fill="black"/>
    <path d="M35.9943 33.9293H30.8474V36.4943H35.9943V33.9293Z" fill="black"/>
    <path d="M33.4293 18.4887H30.8474V23.6356H33.4293V18.4887Z" fill="#2835FF"/>
    <path d="M30.8475 39.0594H28.2825V41.6413H30.8475V39.0594Z" fill="black"/>
    <path d="M30.8474 31.3475H28.2824V28.7825H33.4292V26.2175H28.2824V15.9237H25.7174V21.0706H23.1355V23.6356H25.7174V31.3475H23.1355V33.9293H30.8474V31.3475Z" fill="black"/>
    <path d="M25.7174 10.7769H23.1355V15.9238H25.7174V10.7769Z" fill="black"/>
    <path d="M25.7174 39.0594H20.5706V44.2063H25.7174V39.0594Z" fill="black"/>
    <path d="M23.1354 33.9293H18.0054V36.4943H23.1354V33.9293Z" fill="black"/>
    <path d="M23.1356 18.4887H20.5706V21.0706H23.1356V18.4887Z" fill="black"/>
    <path d="M23.1356 8.21185H20.5706V10.7769H23.1356V8.21185Z" fill="black"/>
    <path d="M23.1355 23.6356H15.4236V26.2174H23.1355V23.6356Z" fill="black"/>
    <path d="M20.5704 15.9237H18.0054V18.4887H20.5704V15.9237Z" fill="black"/>
    <path d="M20.5704 5.64685H18.0054V8.21185H20.5704V5.64685Z" fill="black"/>
    <path d="M18.0055 46.7881H15.4236V49.3531H18.0055V46.7881Z" fill="black"/>
    <path d="M18.0055 36.4944H15.4236V41.6413H18.0055V36.4944Z" fill="black"/>
    <path d="M18.0055 13.3588H15.4236V15.9238H18.0055V13.3588Z" fill="black"/>
    <path d="M15.4236 41.6412H12.8586V44.2062H15.4236V41.6412Z" fill="black"/>
    <path d="M15.4236 21.0707H12.8586V23.6357H15.4236V21.0707Z" fill="black"/>
    <path d="M15.4236 10.7769H12.8586V13.3588H15.4236V10.7769Z" fill="black"/>
    <path d="M18.0055 3.06506H12.8586V5.64694H18.0055V3.06506Z" fill="black"/>
    <path d="M12.8587 18.4887H10.2769V21.0706H12.8587V18.4887Z" fill="black"/>
    <path d="M12.8587 8.21185H10.2769V10.7769H12.8587V8.21185Z" fill="black"/>
    <path d="M10.2769 46.7881H7.71191V49.3531H10.2769V46.7881Z" fill="black"/>
    <path d="M12.8588 39.0594H5.14697V41.6413H12.8588V39.0594Z" fill="black"/>
    <path d="M10.2769 13.3588H7.71191V18.4888H10.2769V13.3588Z" fill="black"/>
    <path d="M7.71197 8.21185H5.14697V13.3587H7.71197V8.21185Z" fill="black"/>
    <path d="M12.8587 0.5H2.56494V3.065H12.8587V0.5Z" fill="black"/>
    <path d="M5.14682 41.6412H2.56494V44.2062H5.14682V41.6412Z" fill="black"/>
    <path d="M5.14682 5.64685H2.56494V8.21185H5.14682V5.64685Z" fill="black"/>
    <path d="M2.565 44.2062H0V51.9181H2.565V44.2062Z" fill="black"/>
    <path d="M2.565 3.06506H0V5.64694H2.565V3.06506Z" fill="black"/>
  </g>
  <defs>
    <clipPath id="clip0_665_293">
      <rect width="54" height="54" fill="white" transform="translate(0 0.5)"/>
    </clipPath>
  </defs>
</svg>