<svg xmlns="http://www.w3.org/2000/svg" width="54" height="55" viewBox="0 0 54 55" fill="none">
  <path d="M30.8561 10.4875H36.0029V13.0525H38.5679V15.6343H41.1498V20.7812H43.7148V33.6231H41.1498V38.7699H38.5679V41.3518H36.0029V43.9168H30.8561V46.4818H17.9973V49.0637H36.0029V46.4818H41.1498V43.9168H43.7148V41.3518H46.2967V38.7699H48.8617V33.6231H51.4267V20.7812H48.8617V15.6343H46.2967V13.0525H43.7148V10.4875H41.1498V7.92245H36.0029V5.34058H17.9973V7.92245H30.8561V10.4875Z" fill="black"/>
  <path d="M41.15 20.7811H38.5681V33.623H41.15V20.7811Z" fill="black"/>
  <path d="M38.5682 33.6232H36.0032V36.205H38.5682V33.6232Z" fill="black"/>
  <path d="M38.5682 18.1995H36.0032V20.7813H38.5682V18.1995Z" fill="black"/>
  <path d="M36.003 36.2048H33.438V38.7698H36.003V36.2048Z" fill="black"/>
  <path d="M36.003 15.6344H33.438V18.1994H36.003V15.6344Z" fill="black"/>
  <path d="M33.4378 38.7699H30.856V41.3518H33.4378V38.7699Z" fill="black"/>
  <path d="M33.4378 13.0525H30.856V15.6344H33.4378V13.0525Z" fill="black"/>
  <path d="M30.8561 41.3518H17.9973V43.9168H30.8561V41.3518Z" fill="black"/>
  <path d="M30.8563 28.493H28.2913V33.623H30.8563V28.493Z" fill="#2835FF"/>
  <path d="M30.8563 20.7811H28.2913V23.3461H30.8563V20.7811Z" fill="#2835FF"/>
  <path d="M30.8561 10.4874H17.9973V13.0524H30.8561V10.4874Z" fill="black"/>
  <path d="M23.1441 36.205V38.77H25.7091V36.205H28.291V33.6231H25.7091V28.4931H28.291V25.9113H25.7091V20.7813H28.291V18.1994H25.7091V15.6344H23.1441V18.1994H20.5791V20.7813H23.1441V25.9113H20.5791V28.4931H23.1441V33.6231H20.5791V36.205H23.1441Z" fill="#2835FF"/>
  <path d="M20.5792 31.0581H17.9973V33.6231H20.5792V31.0581Z" fill="#2835FF"/>
  <path d="M20.5792 20.7811H17.9973V25.9111H20.5792V20.7811Z" fill="#2835FF"/>
  <path d="M17.9972 43.9169H12.8672V46.4819H17.9972V43.9169Z" fill="black"/>
  <path d="M17.9971 38.7699H15.4321V41.3518H17.9971V38.7699Z" fill="black"/>
  <path d="M17.9971 13.0525H15.4321V15.6344H17.9971V13.0525Z" fill="black"/>
  <path d="M17.9972 7.92249H12.8672V10.4875H17.9972V7.92249Z" fill="black"/>
  <path d="M15.4322 36.2048H12.8672V38.7698H15.4322V36.2048Z" fill="black"/>
  <path d="M15.4322 15.6344H12.8672V18.1994H15.4322V15.6344Z" fill="black"/>
  <path d="M12.8673 41.3518H10.2854V43.9168H12.8673V41.3518Z" fill="black"/>
  <path d="M12.8673 33.6232H10.2854V36.205H12.8673V33.6232Z" fill="black"/>
  <path d="M12.8673 18.1995H10.2854V20.7813H12.8673V18.1995Z" fill="black"/>
  <path d="M12.8673 10.4874H10.2854V13.0524H12.8673V10.4874Z" fill="black"/>
  <path d="M10.2852 38.7699H7.72021V41.3518H10.2852V38.7699Z" fill="black"/>
  <path d="M10.2852 20.7811H7.72021V33.623H10.2852V20.7811Z" fill="black"/>
  <path d="M10.2852 13.0525H7.72021V15.6344H10.2852V13.0525Z" fill="black"/>
  <path d="M7.72055 33.6232H5.13867V38.77H7.72055V33.6232Z" fill="black"/>
  <path d="M7.72055 15.6344H5.13867V20.7813H7.72055V15.6344Z" fill="black"/>
  <path d="M5.13849 20.7811H2.57349V33.623H5.13849V20.7811Z" fill="black"/>
</svg>