<svg xmlns="http://www.w3.org/2000/svg" width="54" height="55" viewBox="0 0 54 55" fill="none">
  <g clip-path="url(#clip0_665_345)">
    <path d="M54.0001 3.08191H51.4351V28.7825H54.0001V3.08191Z" fill="black"/>
    <path d="M51.4351 0.5H23.1526V3.08188H51.4351V0.5Z" fill="black"/>
    <path d="M51.4348 28.7825H41.158V31.3643H51.4348V28.7825Z" fill="black"/>
    <path d="M43.723 18.5056H41.158V23.6525H43.723V18.5056Z" fill="#2835FF"/>
    <path d="M43.723 10.7937H41.158V13.3587H43.723V10.7937Z" fill="#2835FF"/>
    <path d="M41.1583 31.3645H38.5764V33.9295H41.1583V31.3645Z" fill="black"/>
    <path d="M38.5762 33.9293H36.0112V36.5112H38.5762V33.9293Z" fill="black"/>
    <path d="M36.0113 26.2175V28.7825H38.5763V26.2175H41.1582V23.6525H38.5763V18.5056H41.1582V15.9237H38.5763V10.7937H41.1582V8.21185H38.5763V5.64685H36.0113V8.21185H33.4294V10.7937H36.0113V15.9237H33.4294V18.5056H36.0113V23.6525H33.4294V26.2175H36.0113Z" fill="#2835FF"/>
    <path d="M30.8643 31.3645H28.2993V39.0764H36.0112V36.5114H30.8643V31.3645Z" fill="black"/>
    <path d="M33.4295 21.0707H30.8645V23.6526H33.4295V21.0707Z" fill="#2835FF"/>
    <path d="M33.4295 10.7937H30.8645V15.9237H33.4295V10.7937Z" fill="#2835FF"/>
    <path d="M30.8644 51.9349H25.7175V54.4999H30.8644V51.9349Z" fill="black"/>
    <path d="M25.7174 49.3531H20.5706V51.935H25.7174V49.3531Z" fill="black"/>
    <path d="M23.1524 44.2231H20.5706V46.7881H23.1524V44.2231Z" fill="black"/>
    <path d="M23.1524 3.08191H20.5706V18.5057H23.1524V3.08191Z" fill="black"/>
    <path d="M7.729 46.7882V49.3532H12.859V54.5001H15.4409V49.3532H20.5709V46.7882H7.729Z" fill="black"/>
    <path d="M20.5704 39.0763H18.0054V41.6413H20.5704V39.0763Z" fill="black"/>
    <path d="M20.5704 33.9293H18.0054V36.5112H20.5704V33.9293Z" fill="black"/>
    <path d="M18.0055 41.6412H12.8586V44.2231H18.0055V41.6412Z" fill="black"/>
    <path d="M10.294 33.9293H7.729V36.5112H10.294V33.9293Z" fill="black"/>
    <path d="M7.72885 44.2231H5.14697V46.7881H7.72885V44.2231Z" fill="black"/>
    <path d="M7.72866 49.3531H2.58179V51.935H7.72866V49.3531Z" fill="black"/>
    <path d="M5.14679 31.3644H7.72866V28.7826H20.5705V31.3644H23.1524V44.2232H25.7174V26.2176H23.1524V23.6526H20.5705V21.0707H7.72866V23.6526H5.14679V26.2176H2.58179V44.2232H5.14679V31.3644Z" fill="black"/>
    <path d="M2.58188 51.9349H0V54.4999H2.58188V51.9349Z" fill="black"/>
  </g>
  <defs>
    <clipPath id="clip0_665_345">
      <rect width="54" height="54" fill="white" transform="translate(0 0.5)"/>
    </clipPath>
  </defs>
</svg>