<svg xmlns="http://www.w3.org/2000/svg" width="54" height="55" viewBox="0 0 54 55" fill="none">
  <path d="M54.0001 27.5085H51.4351V40.3672H54.0001V27.5085Z" fill="black"/>
  <path d="M51.4349 40.3672H48.853V42.9322H51.4349V40.3672Z" fill="black"/>
  <path d="M51.4349 24.9265H48.853V27.5084H51.4349V24.9265Z" fill="black"/>
  <path d="M48.8531 30.0735H46.2881V37.7854H48.8531V30.0735Z" fill="black"/>
  <path d="M48.8532 42.9322H33.4294V45.4972H48.8532V42.9322Z" fill="black"/>
  <path d="M46.2881 27.5085H36.0112V30.0735H46.2881V27.5085Z" fill="black"/>
  <path d="M41.1414 12.0679H38.5764V14.6497H41.1414V12.0679Z" fill="#0717FF"/>
  <path d="M46.2881 37.7853H36.0112V40.3672H46.2881V37.7853Z" fill="black"/>
  <path d="M48.8532 22.3616H33.4294V24.9266H48.8532V22.3616Z" fill="black"/>
  <path d="M38.5762 14.6496H36.0112V17.2146H38.5762V14.6496Z" fill="#0717FF"/>
  <path d="M36.0113 17.2147H33.4294V19.7965H36.0113V17.2147Z" fill="#0717FF"/>
  <path d="M33.4295 40.3672H30.8645V42.9322H33.4295V40.3672Z" fill="black"/>
  <path d="M36.0112 37.7853V35.2203H28.2825V40.3671H30.8643V37.7853H36.0112Z" fill="black"/>
  <path d="M30.8643 27.5085H28.2825V32.6385H36.0112V30.0735H30.8643V27.5085Z" fill="black"/>
  <path d="M33.4295 24.9265H30.8645V27.5084H33.4295V24.9265Z" fill="black"/>
  <path d="M28.2825 9.50281H25.7175V19.7966H28.2825V9.50281Z" fill="#0717FF"/>
  <path d="M18.0054 30.0735V32.6385H25.7172V27.5085H23.1522V30.0735H18.0054Z" fill="black"/>
  <path d="M23.1524 40.3672H20.5706V42.9322H23.1524V40.3672Z" fill="black"/>
  <path d="M23.1522 40.3671H25.7172V35.2203H18.0054V37.7853H23.1522V40.3671Z" fill="black"/>
  <path d="M23.1524 24.9265H20.5706V27.5084H23.1524V24.9265Z" fill="black"/>
  <path d="M20.5704 17.2147H18.0054V19.7965H20.5704V17.2147Z" fill="#0717FF"/>
  <path d="M20.5707 42.9322H5.14697V45.4972H20.5707V42.9322Z" fill="black"/>
  <path d="M18.0057 27.5085H7.71191V30.0735H18.0057V27.5085Z" fill="black"/>
  <path d="M18.0057 14.6496H15.4407V17.2146H18.0057V14.6496Z" fill="#0717FF"/>
  <path d="M15.4405 12.0679H12.8586V14.6497H15.4405V12.0679Z" fill="#0717FF"/>
  <path d="M18.0057 37.7853H7.71191V40.3672H18.0057V37.7853Z" fill="black"/>
  <path d="M20.5707 22.3616H5.14697V24.9266H20.5707V22.3616Z" fill="black"/>
  <path d="M7.71197 30.0735H5.14697V37.7854H7.71197V30.0735Z" fill="black"/>
  <path d="M5.14679 40.3672H2.58179V42.9322H5.14679V40.3672Z" fill="black"/>
  <path d="M5.14679 24.9265H2.58179V27.5084H5.14679V24.9265Z" fill="black"/>
  <path d="M2.58188 27.5085H0V40.3672H2.58188V27.5085Z" fill="black"/>
</svg>