<svg xmlns="http://www.w3.org/2000/svg" width="48" height="48" viewBox="0 0 48 48" fill="none">
  <g clip-path="url(#clip0_665_245)">
    <path d="M6.24292 2.85979H41.7569V5.08852H39.5427V7.30268H41.7569V11.7456H43.9856V45.0454H46.1998V9.5314H43.9856V2.85979H46.1998V0.64563H6.24292V2.85979Z" fill="black"/>
    <path d="M10.6858 45.0453V11.7455H23.9999V9.53137H6.24292V11.7455H8.47165V45.0453H6.24292V47.2595H43.9856V45.0453H10.6858Z" fill="black"/>
    <path d="M37.3287 16.1884H35.0999V9.53139H32.8858V7.30266H35.0999V5.0885H24V7.30266H26.2287V9.53139H28.4429V31.7167H30.657V29.5025H32.8858V27.2884H35.0999V29.5025H37.3287V31.7167H39.5428V9.53139H37.3287V16.1884Z" fill="#0717FF"/>
    <path d="M37.3286 7.30273H35.0999V9.53146H37.3286V7.30273Z" fill="black"/>
    <path d="M21.786 5.0885H8.47192V7.30266H21.786V5.0885Z" fill="black"/>
    <path d="M6.24248 42.8167H4.02832V45.0454H6.24248V42.8167Z" fill="black"/>
    <path d="M6.24248 2.85986H4.02832V5.08859H6.24248V2.85986Z" fill="black"/>
    <path d="M4.02878 9.53139H6.24294V7.30266H4.02878V5.0885H1.80005V42.8166H4.02878V9.53139Z" fill="black"/>
  </g>
  <defs>
    <clipPath id="clip0_665_245">
      <rect width="46.6139" height="46.6139" fill="white" transform="translate(0.692871 0.64563)"/>
    </clipPath>
  </defs>
</svg>