<svg width="120" height="28" viewBox="0 0 120 28" fill="none" xmlns="http://www.w3.org/2000/svg">
<g clip-path="url(#clip0_362_21)">
<mask id="mask0_362_21" style="mask-type:luminance" maskUnits="userSpaceOnUse" x="0" y="0" width="28" height="28">
<path d="M27.984 0.00805664H0V27.9921H27.984V0.00805664Z" fill="white"/>
</mask>
<g mask="url(#mask0_362_21)">
<path fill-rule="evenodd" clip-rule="evenodd" d="M0 14.0879C0 21.7669 6.26428 27.9917 13.9918 27.9917C21.7193 27.9917 27.984 21.7669 27.984 14.0879C27.984 6.40893 21.7193 0.184082 13.9918 0.184082C6.26428 0.184082 0 6.40893 0 14.0879Z" fill="#0C0C4F"/>
<path fill-rule="evenodd" clip-rule="evenodd" d="M7.8202 10.8115L8.16558 9.75108C8.23582 9.53544 8.40709 9.36759 8.62491 9.30144L9.69721 8.97374C9.84563 8.92869 9.84686 8.7206 9.69961 8.67314L8.63213 8.32994C8.41554 8.26021 8.24663 8.08995 8.17963 7.87352L7.85026 6.80795C7.80498 6.66086 7.59555 6.65924 7.54781 6.80599L7.20243 7.8663C7.13219 8.08161 6.96093 8.24941 6.7431 8.31601L5.67081 8.64331C5.52236 8.6887 5.52075 8.8964 5.6684 8.94386L6.73588 9.28705C6.95248 9.35685 7.12139 9.52744 7.18838 9.74392L7.51775 10.809C7.56303 10.9566 7.77246 10.9581 7.8202 10.8115Z" fill="#FAFAFA"/>
<path fill-rule="evenodd" clip-rule="evenodd" d="M24.7695 10.1944C24.3274 9.70315 23.6376 9.42661 22.9668 9.31316C22.2907 9.20425 21.5818 9.21438 20.9144 9.33219C19.5639 9.5592 18.3371 10.1149 17.2669 10.8003C16.7112 11.1368 16.2374 11.5261 15.7464 11.9225C15.5098 12.123 15.2942 12.3366 15.0696 12.547L14.4558 13.1538C13.7889 13.8465 13.1316 14.4774 12.4957 15.0004C11.8571 15.5209 11.2601 15.9163 10.6718 16.1924C10.0838 16.4699 9.4547 16.6331 8.63465 16.6592C7.82183 16.6877 6.86018 16.5419 5.83155 16.3013C4.79736 16.0617 3.71137 15.7203 2.4978 15.4265C2.92125 16.5938 3.5589 17.6254 4.37757 18.5684C5.20585 19.495 6.24011 20.3397 7.56874 20.8951C8.87822 21.4629 10.5238 21.6665 12.0625 21.359C13.6052 21.0641 14.959 20.3546 16.0533 19.5343C17.1505 18.7054 18.0381 17.7612 18.7864 16.7798C18.9929 16.5086 19.1022 16.3568 19.2517 16.1449L19.6649 15.5367C19.952 15.1605 20.2134 14.7322 20.4975 14.3595C21.0547 13.5789 21.6041 12.7992 22.2424 12.0808C22.5637 11.7165 22.9025 11.368 23.3024 11.0331C23.5019 10.8696 23.7174 10.7097 23.9562 10.5656C24.1985 10.4101 24.4544 10.2885 24.7695 10.1944Z" fill="url(#paint0_linear_362_21)"/>
<path fill-rule="evenodd" clip-rule="evenodd" d="M24.7695 10.1953C24.2946 9.00456 23.4117 8.00218 22.2267 7.2625C21.0489 6.53094 19.413 6.15758 17.7919 6.47587C16.9911 6.62973 16.2152 6.92608 15.5344 7.32065C14.8566 7.71372 14.2493 8.18681 13.7234 8.69439C13.4609 8.94904 13.2227 9.21461 12.986 9.48175L12.3725 10.259L11.425 11.5102C10.217 13.12 8.91617 15.0065 6.78149 15.5655C4.6858 16.1142 3.77687 15.6283 2.4978 15.4275C2.73168 16.0275 3.02137 16.6102 3.4141 17.1227C3.79952 17.6458 4.25478 18.137 4.82076 18.558C5.10678 18.7602 5.40876 18.9598 5.74412 19.1291C6.07803 19.2926 6.43807 19.4366 6.82235 19.545C7.58682 19.7532 8.44738 19.826 9.28069 19.7141C10.1143 19.6036 10.9112 19.341 11.6077 18.9923C12.3093 18.647 12.9206 18.2264 13.4663 17.7825C14.5513 16.8872 15.3951 15.8979 16.108 14.8979C16.4665 14.398 16.792 13.8886 17.093 13.3791L17.4473 12.7725C17.5556 12.5952 17.6651 12.4168 17.7763 12.2506C18.2253 11.5831 18.6644 11.0478 19.1977 10.6461C19.7235 10.2338 20.4559 9.92938 21.4344 9.85858C22.4089 9.787 23.5339 9.91925 24.7695 10.1953Z" fill="#FAFAFA"/>
<path fill-rule="evenodd" clip-rule="evenodd" d="M19.4971 20.0889C19.4971 20.9634 20.2111 21.6729 21.0911 21.6729C21.9714 21.6729 22.6843 20.9634 22.6843 20.0889C22.6843 19.2142 21.9714 18.5049 21.0911 18.5049C20.2111 18.5049 19.4971 19.2142 19.4971 20.0889Z" fill="url(#paint1_linear_362_21)"/>
</g>
</g>
<path d="M111.72 19.722H109.635V15.5684H118.803V19.722H116.742V25.8393H111.72V19.722Z" fill="white"/>
<path d="M101.048 15.5684H109.159V18.8913H106.07V19.4955H108.487V21.9122H106.07V22.5163H109.227V25.8393H101.048V15.5684Z" fill="white"/>
<path d="M89.1009 15.5684H93.4359L95.4976 19.0499L95.5958 19.0575V15.5684H99.976V25.8393H95.6411L93.5567 22.3351H93.4812V25.8393H89.1009V15.5684Z" fill="white"/>
<path d="M86.3596 20.6207L88.4289 25.8393H83.1575L82.4853 23.6794L82.085 23.8606V25.8393H77.0629V15.5684H82.085V19.0499L83.2254 15.5684H88.4742L86.3596 20.6207Z" fill="white"/>
<path d="M65.7498 15.5684H70.9758C71.7713 15.5684 72.4913 15.6263 73.1358 15.7421C73.7802 15.8579 74.329 16.0618 74.7821 16.3538C75.2403 16.6408 75.5927 17.0335 75.8394 17.5319C76.0861 18.0304 76.2095 18.6647 76.2095 19.4351C76.2095 19.7371 76.1768 20.0141 76.1113 20.2658C76.0459 20.5175 75.9577 20.7466 75.847 20.953C75.7362 21.1595 75.6103 21.3458 75.4694 21.5119C75.3284 21.673 75.1849 21.8165 75.0389 21.9424L76.436 25.8393H71.6555L70.9758 22.8939H70.8097H70.704V25.8393H65.7498V15.5684ZM71.1798 20.1903C71.3258 20.1903 71.429 20.145 71.4894 20.0543C71.5548 19.9637 71.5876 19.8051 71.5876 19.5786C71.5876 19.4174 71.5574 19.284 71.4969 19.1783C71.4416 19.0675 71.3258 19.0121 71.1495 19.0121H70.6662V20.1903H71.1798Z" fill="white"/>
<path d="M60.2289 25.069H58.6203L58.5221 25.8393H53.5679L56.0224 15.5684H62.8118L65.2738 25.8393H60.3347L60.2289 25.069ZM59.8211 22.033L59.519 19.7825L59.4662 19.2916H59.3755L59.3227 19.7825L59.0281 22.033H59.8211Z" fill="white"/>
<path d="M47.0277 19.722H44.9433V15.5684H54.1116V19.722H52.0499V25.8393H47.0277V19.722Z" fill="white"/>
<path d="M40.0194 26.1412C39.3145 26.1412 38.6953 26.0909 38.1616 25.9902C37.6279 25.8895 37.1672 25.7535 36.7795 25.5824C36.3969 25.4061 36.0797 25.1997 35.828 24.9631C35.5762 24.7214 35.3748 24.4646 35.2238 24.1928C35.0778 23.9159 34.9746 23.6264 34.9141 23.3243C34.8537 23.0222 34.8235 22.7201 34.8235 22.418H39.2415C39.2415 22.4583 39.2466 22.5011 39.2566 22.5464C39.2717 22.5867 39.2969 22.6244 39.3321 22.6597C39.3674 22.6899 39.4177 22.7176 39.4832 22.7428C39.5537 22.7629 39.6443 22.773 39.7551 22.773C39.9162 22.773 40.0269 22.7453 40.0874 22.6899C40.1478 22.6295 40.178 22.5615 40.178 22.486C40.178 22.4105 40.1553 22.3475 40.11 22.2972C40.0697 22.2468 39.9917 22.204 39.8759 22.1688C39.7601 22.1336 39.6015 22.1033 39.4001 22.0782C39.1987 22.053 38.9394 22.0253 38.6222 21.9951C37.867 21.9246 37.2503 21.8214 36.772 21.6855C36.2937 21.5445 35.9161 21.3506 35.6391 21.1039C35.3622 20.8572 35.1709 20.5476 35.0652 20.175C34.9645 19.8025 34.9141 19.3518 34.9141 18.8232C34.9141 18.1888 35.0299 17.6476 35.2615 17.1995C35.4982 16.7514 35.833 16.3864 36.266 16.1044C36.704 15.8174 37.2301 15.6085 37.8444 15.4776C38.4586 15.3417 39.1433 15.2737 39.8986 15.2737C40.7394 15.2737 41.4543 15.3668 42.0434 15.5531C42.6324 15.7344 43.1133 15.9911 43.4858 16.3234C43.8584 16.6507 44.1278 17.0409 44.2939 17.494C44.4651 17.9471 44.5507 18.4431 44.5507 18.9818H40.2309C40.2258 18.9415 40.2158 18.9012 40.2006 18.861C40.1855 18.8207 40.1604 18.7854 40.1251 18.7552C40.0949 18.72 40.0471 18.6923 39.9816 18.6721C39.9212 18.652 39.8407 18.6419 39.74 18.6419C39.5738 18.6419 39.4656 18.6747 39.4152 18.7401C39.3649 18.8056 39.3397 18.8761 39.3397 18.9516C39.3397 19.017 39.3598 19.0699 39.4001 19.1102C39.4404 19.1454 39.5235 19.1781 39.6493 19.2084C39.7802 19.2335 39.9615 19.2562 40.1931 19.2763C40.4297 19.2914 40.7444 19.3116 41.1371 19.3367C41.8873 19.3821 42.499 19.4853 42.9723 19.6464C43.4456 19.8075 43.8156 20.0215 44.0825 20.2883C44.3493 20.5552 44.5305 20.8723 44.6262 21.2399C44.7269 21.6024 44.7772 22.0102 44.7772 22.4633C44.7772 23.1128 44.6564 23.6692 44.4147 24.1324C44.1731 24.5956 43.8383 24.9782 43.4103 25.2803C42.9874 25.5773 42.4864 25.7938 41.9074 25.9298C41.3284 26.0707 40.6991 26.1412 40.0194 26.1412Z" fill="white"/>
<path d="M108.616 2.15308H112.95L115.012 5.63462L115.11 5.64217V2.15308H119.491V12.424H115.156L113.071 8.9198H112.996V12.424H108.616V2.15308Z" fill="white"/>
<path d="M102.234 12.7261C101.313 12.7261 100.5 12.6204 99.7947 12.4089C99.0949 12.1974 98.5083 11.8953 98.035 11.5026C97.5668 11.1049 97.2119 10.6266 96.9702 10.0677C96.7336 9.50383 96.6152 8.87197 96.6152 8.17214V2.15308H101.637V7.3414C101.637 7.64349 101.678 7.84488 101.758 7.94557C101.844 8.04123 101.96 8.08907 102.106 8.08907C102.181 8.08907 102.247 8.079 102.302 8.05886C102.362 8.03872 102.413 8.00347 102.453 7.95313C102.493 7.89774 102.524 7.82222 102.544 7.72656C102.569 7.62587 102.581 7.5 102.581 7.34895V2.15308H107.604V8.17214C107.604 8.80652 107.488 9.40062 107.256 9.95445C107.025 10.5083 106.682 10.9916 106.229 11.4045C105.776 11.8123 105.215 12.1345 104.545 12.3711C103.875 12.6078 103.105 12.7261 102.234 12.7261Z" fill="white"/>
<path d="M85.3701 2.15308H90.5962C91.3917 2.15308 92.1117 2.21098 92.7561 2.32678C93.4006 2.44258 93.9494 2.64648 94.4025 2.9385C94.8607 3.22548 95.2131 3.61819 95.4598 4.11663C95.7065 4.61508 95.8299 5.24946 95.8299 6.01978C95.8299 6.32186 95.7971 6.59877 95.7317 6.85051C95.6662 7.10225 95.5781 7.33133 95.4674 7.53776C95.3566 7.74418 95.2307 7.93047 95.0898 8.09662C94.9488 8.25773 94.8053 8.40122 94.6593 8.52709L96.0564 12.424H91.2759L90.5962 9.47866H90.4301H90.3244V12.424H85.3701V2.15308ZM90.8001 6.77499C90.9462 6.77499 91.0494 6.72968 91.1098 6.63905C91.1752 6.54843 91.208 6.38983 91.208 6.16327C91.208 6.00215 91.1778 5.86873 91.1173 5.763C91.062 5.65224 90.9462 5.59686 90.7699 5.59686H90.2866V6.77499H90.8001Z" fill="white"/>
<path d="M73.4377 2.15308H78.8828C79.6682 2.15308 80.4109 2.25377 81.1107 2.45516C81.8156 2.65655 82.4323 2.96871 82.961 3.39163C83.4896 3.80951 83.9075 4.34068 84.2146 4.98513C84.5217 5.62958 84.6753 6.39487 84.6753 7.28099C84.6753 8.07648 84.5469 8.79393 84.2902 9.43335C84.0384 10.0677 83.6658 10.6064 83.1724 11.0495C82.6841 11.4926 82.0824 11.8324 81.3675 12.069C80.6525 12.3057 79.8319 12.424 78.9055 12.424H73.4377V2.15308ZM78.8602 8.1948C79.0716 8.1948 79.2428 8.11424 79.3737 7.95313C79.5046 7.78698 79.5701 7.573 79.5701 7.31119C79.5701 7.03932 79.5046 6.81779 79.3737 6.64661C79.2428 6.47039 79.0716 6.38228 78.8602 6.38228H78.4599V8.1948H78.8602Z" fill="white"/>
<path d="M64.36 2.15308H72.471V5.47602H69.3821V6.08019H71.7988V8.49688H69.3821V9.10105H72.5389V12.424H64.36V2.15308Z" fill="white"/>
<path d="M55.2823 2.15308H63.3933V5.47602H60.3045V6.08019H62.7212V8.49688H60.3045V9.10105H63.4613V12.424H55.2823V2.15308Z" fill="white"/>
<path d="M44.2562 2.15308H49.2028C49.958 2.15308 50.6554 2.20342 51.2948 2.30412C51.9342 2.40481 52.4855 2.59614 52.9487 2.87808C53.4169 3.15499 53.7819 3.54015 54.0437 4.03356C54.3056 4.52697 54.4365 5.1689 54.4365 5.95936C54.4365 6.74982 54.3056 7.39427 54.0437 7.89271C53.7819 8.38612 53.427 8.77379 52.9789 9.05574C52.5358 9.33769 52.0173 9.53153 51.4232 9.63726C50.8341 9.73795 50.2123 9.7883 49.5578 9.7883H49.2028V12.424H44.2562V2.15308ZM49.6862 6.70702C49.8322 6.70702 49.9354 6.66171 49.9958 6.57108C50.0612 6.48046 50.094 6.32186 50.094 6.0953C50.094 5.93419 50.0638 5.80076 50.0033 5.69503C49.948 5.58427 49.8322 5.52889 49.656 5.52889H49.1726V6.70702H49.6862Z" fill="white"/>
<path d="M38.8413 12.7262C38.1364 12.7262 37.5172 12.6758 36.9835 12.5751C36.4498 12.4744 35.9891 12.3385 35.6014 12.1673C35.2188 11.9911 34.9016 11.7847 34.6499 11.5481C34.3981 11.3064 34.1967 11.0496 34.0457 10.7777C33.8997 10.5008 33.7965 10.2113 33.736 9.90923C33.6756 9.60715 33.6454 9.30506 33.6454 9.00298H38.0634C38.0634 9.04325 38.0685 9.08605 38.0785 9.13136C38.0936 9.17164 38.1188 9.2094 38.154 9.24465C38.1893 9.27485 38.2396 9.30254 38.3051 9.32772C38.3756 9.34786 38.4662 9.35793 38.577 9.35793C38.7381 9.35793 38.8488 9.33024 38.9093 9.27485C38.9697 9.21444 38.9999 9.14647 38.9999 9.07095C38.9999 8.99542 38.9772 8.93249 38.9319 8.88214C38.8916 8.83179 38.8136 8.789 38.6978 8.75376C38.582 8.71851 38.4234 8.6883 38.222 8.66313C38.0206 8.63796 37.7613 8.61026 37.4441 8.58006C36.6889 8.50957 36.0722 8.40636 35.5939 8.27042C35.1156 8.12944 34.738 7.93561 34.461 7.6889C34.1841 7.4422 33.9928 7.13256 33.8871 6.75999C33.7864 6.38741 33.736 5.9368 33.736 5.40815C33.736 4.77377 33.8518 4.23253 34.0834 3.78444C34.3201 3.33635 34.6549 2.97133 35.0879 2.68938C35.5259 2.4024 36.052 2.19345 36.6663 2.06255C37.2805 1.92661 37.9652 1.85864 38.7205 1.85864C39.5613 1.85864 40.2762 1.95179 40.8653 2.13807C41.4543 2.31932 41.9352 2.5761 42.3077 2.90839C42.6803 3.23565 42.9497 3.62585 43.1158 4.07897C43.287 4.5321 43.3726 5.02803 43.3726 5.56675H39.0528C39.0477 5.52647 39.0377 5.48619 39.0225 5.44591C39.0074 5.40564 38.9823 5.37039 38.947 5.34018C38.9168 5.30494 38.869 5.27725 38.8035 5.25711C38.7431 5.23697 38.6626 5.2269 38.5619 5.2269C38.3957 5.2269 38.2875 5.25963 38.2371 5.32508C38.1868 5.39053 38.1616 5.46102 38.1616 5.53654C38.1616 5.60199 38.1817 5.65486 38.222 5.69513C38.2623 5.73038 38.3454 5.7631 38.4712 5.79331C38.6021 5.81849 38.7834 5.84114 39.015 5.86128C39.2516 5.87639 39.5663 5.89653 39.959 5.9217C40.7092 5.96701 41.3209 6.07022 41.7942 6.23134C42.2675 6.39245 42.6375 6.60643 42.9044 6.87327C43.1712 7.14011 43.3524 7.4573 43.4481 7.82484C43.5488 8.18734 43.5991 8.59516 43.5991 9.04829C43.5991 9.69777 43.4783 10.2541 43.2366 10.7173C42.995 11.1805 42.6602 11.5632 42.2322 11.8652C41.8093 12.1623 41.3083 12.3788 40.7293 12.5147C40.1503 12.6557 39.521 12.7262 38.8413 12.7262Z" fill="white"/>
<defs>
<linearGradient id="paint0_linear_362_21" x1="24.6505" y1="9.77652" x2="5.10672" y2="20.7045" gradientUnits="userSpaceOnUse">
<stop stop-color="#EC796B"/>
<stop offset="1" stop-color="#E175B1"/>
</linearGradient>
<linearGradient id="paint1_linear_362_21" x1="22.6832" y1="18.9776" x2="19.4954" y2="19.3169" gradientUnits="userSpaceOnUse">
<stop stop-color="#EC796B"/>
<stop offset="1" stop-color="#E175B1"/>
</linearGradient>
<clipPath id="clip0_362_21">
<rect width="27.984" height="27.984" fill="white" transform="translate(0 0.00805664)"/>
</clipPath>
</defs>
</svg>
