<svg width="106" height="26" viewBox="0 0 106 26" fill="none" xmlns="http://www.w3.org/2000/svg">
<g clip-path="url(#clip0_296_36)">
<mask id="mask0_296_36" style="mask-type:luminance" maskUnits="userSpaceOnUse" x="-1" y="0" width="26" height="26">
<path d="M24.7136 0.512939H-0.0012207V25.2278H24.7136V0.512939Z" fill="white"/>
</mask>
<g mask="url(#mask0_296_36)">
<path fill-rule="evenodd" clip-rule="evenodd" d="M-0.0012207 12.948C-0.0012207 19.7299 5.53125 25.2275 12.356 25.2275C19.1808 25.2275 24.7136 19.7299 24.7136 12.948C24.7136 6.1661 19.1808 0.668457 12.356 0.668457C5.53125 0.668457 -0.0012207 6.1661 -0.0012207 12.948Z" fill="#0C0C4F"/>
<path fill-rule="evenodd" clip-rule="evenodd" d="M6.90539 10.0542L7.21042 9.11766C7.27245 8.92721 7.42371 8.77897 7.61609 8.72054L8.56311 8.43113C8.6942 8.39134 8.69529 8.20756 8.56524 8.16564L7.62246 7.86254C7.43117 7.80095 7.28199 7.65059 7.22283 7.45944L6.93193 6.51835C6.89194 6.38845 6.70698 6.38701 6.66481 6.51662L6.35978 7.45306C6.29775 7.64322 6.14649 7.79141 5.95411 7.85023L5.00709 8.1393C4.87599 8.17938 4.87456 8.36282 5.00496 8.40473L5.94774 8.70784C6.13903 8.76948 6.28821 8.92014 6.34738 9.11133L6.63827 10.052C6.67826 10.1823 6.86322 10.1837 6.90539 10.0542Z" fill="#FAFAFA"/>
<path fill-rule="evenodd" clip-rule="evenodd" d="M21.8746 9.50933C21.4842 9.07549 20.875 8.83125 20.2826 8.73106C19.6855 8.63487 19.0594 8.64382 18.47 8.74787C17.2772 8.94835 16.1937 9.43909 15.2486 10.0445C14.7578 10.3416 14.3393 10.6855 13.9057 11.0356C13.6967 11.2127 13.5063 11.4013 13.3079 11.5871L12.7659 12.123C12.1769 12.7348 11.5964 13.292 11.0347 13.7539C10.4708 14.2136 9.9435 14.5628 9.4239 14.8066C8.90459 15.0517 8.349 15.1958 7.62476 15.2189C6.90689 15.2441 6.05759 15.1153 5.14912 14.9028C4.23575 14.6912 3.27663 14.3897 2.20483 14.1302C2.57881 15.1612 3.14197 16.0722 3.865 16.905C4.59651 17.7234 5.50995 18.4694 6.68337 18.9599C7.83987 19.4614 9.2932 19.6412 10.6521 19.3697C12.0146 19.1092 13.2103 18.4826 14.1768 17.7581C15.1457 17.0261 15.9296 16.1922 16.5905 15.3254C16.7729 15.0859 16.8694 14.9518 17.0015 14.7646L17.3664 14.2275C17.6199 13.8953 17.8508 13.517 18.1017 13.1878C18.5938 12.4984 19.079 11.8098 19.6428 11.1754C19.9266 10.8537 20.2258 10.5459 20.579 10.2501C20.7552 10.1057 20.9455 9.96443 21.1564 9.83715C21.3704 9.69988 21.5964 9.59242 21.8746 9.50933Z" fill="url(#paint0_linear_296_36)"/>
<path fill-rule="evenodd" clip-rule="evenodd" d="M21.8746 9.50992C21.4553 8.45825 20.6755 7.57297 19.6289 6.9197C18.5887 6.27361 17.144 5.94386 15.7122 6.22497C15.005 6.36085 14.3198 6.62258 13.7184 6.97106C13.1199 7.31821 12.5834 7.73603 12.1191 8.18431C11.8872 8.40922 11.6768 8.64376 11.4678 8.87969L10.926 9.56617L10.0891 10.6712C9.02223 12.0929 7.87339 13.759 5.98809 14.2527C4.13722 14.7374 3.33448 14.3082 2.20483 14.1308C2.41139 14.6607 2.66724 15.1754 3.01409 15.628C3.35448 16.0899 3.75655 16.5238 4.25642 16.8956C4.50902 17.0742 4.77573 17.2505 5.07191 17.4C5.36681 17.5444 5.68479 17.6715 6.02417 17.7673C6.69933 17.9512 7.45936 18.0155 8.19532 17.9167C8.93158 17.819 9.63531 17.5871 10.2505 17.2792C10.8702 16.9742 11.41 16.6027 11.892 16.2107C12.8502 15.42 13.5955 14.5463 14.225 13.6631C14.5416 13.2216 14.8291 12.7717 15.095 12.3218L15.4079 11.786C15.5035 11.6294 15.6002 11.4718 15.6985 11.3251C16.095 10.7355 16.4828 10.2628 16.9538 9.90797C17.4182 9.54393 18.065 9.27503 18.9292 9.2125C19.7898 9.14928 20.7834 9.26608 21.8746 9.50992Z" fill="#FAFAFA"/>
<path fill-rule="evenodd" clip-rule="evenodd" d="M17.2181 18.2478C17.2181 19.0202 17.8487 19.6468 18.6259 19.6468C19.4034 19.6468 20.033 19.0202 20.033 18.2478C20.033 17.4753 19.4034 16.8489 18.6259 16.8489C17.8487 16.8489 17.2181 17.4753 17.2181 18.2478Z" fill="url(#paint1_linear_296_36)"/>
</g>
</g>
<path d="M98.6668 17.9238H96.8259V14.2554H104.923V17.9238H103.102V23.3264H98.6668V17.9238Z" fill="#0C0C4F"/>
<path d="M89.2423 14.2554H96.4058V17.1901H93.6778V17.7237H95.8121V19.8581H93.6778V20.3917H96.4658V23.3264H89.2423V14.2554Z" fill="#0C0C4F"/>
<path d="M78.6906 14.2554H82.5191L84.3399 17.3302L84.4266 17.3369V14.2554H88.2952V23.3264H84.4667L82.6258 20.2316H82.5591V23.3264H78.6906V14.2554Z" fill="#0C0C4F"/>
<path d="M76.2695 18.7175L78.097 23.3264H73.4414L72.8478 21.4188L72.4943 21.5789V23.3264H68.0588V14.2554H72.4943V17.3302L73.5015 14.2554H78.137L76.2695 18.7175Z" fill="#0C0C4F"/>
<path d="M58.0674 14.2554H62.6829C63.3855 14.2554 64.0214 14.3065 64.5905 14.4088C65.1597 14.511 65.6444 14.6911 66.0446 14.949C66.4492 15.2025 66.7605 15.5493 66.9783 15.9895C67.1962 16.4298 67.3052 16.99 67.3052 17.6704C67.3052 17.9371 67.2763 18.1817 67.2185 18.404C67.1607 18.6264 67.0828 18.8287 66.985 19.011C66.8872 19.1933 66.776 19.3578 66.6515 19.5046C66.527 19.6469 66.4003 19.7736 66.2713 19.8848L67.5053 23.3264H63.2832L62.6829 20.7252H62.5362H62.4428V23.3264H58.0674V14.2554ZM62.863 18.3373C62.992 18.3373 63.0831 18.2973 63.1365 18.2173C63.1943 18.1372 63.2232 17.9972 63.2232 17.7971C63.2232 17.6548 63.1965 17.537 63.1432 17.4436C63.0942 17.3457 62.992 17.2968 62.8363 17.2968H62.4095V18.3373H62.863Z" fill="#0C0C4F"/>
<path d="M53.1915 22.6461H51.7709L51.6842 23.3264H47.3087L49.4764 14.2554H55.4726L57.647 23.3264H53.2849L53.1915 22.6461ZM52.8314 19.9648L52.5646 17.9772L52.5179 17.5436H52.4379L52.3912 17.9772L52.131 19.9648H52.8314Z" fill="#0C0C4F"/>
<path d="M41.5325 17.9238H39.6917V14.2554H47.7889V17.9238H45.968V23.3264H41.5325V17.9238Z" fill="#0C0C4F"/>
<path d="M35.343 23.5933C34.7205 23.5933 34.1736 23.5489 33.7022 23.4599C33.2309 23.371 32.824 23.2509 32.4816 23.0997C32.1437 22.9441 31.8636 22.7618 31.6412 22.5528C31.4189 22.3394 31.2411 22.1126 31.1077 21.8725C30.9787 21.6279 30.8875 21.3722 30.8342 21.1055C30.7808 20.8387 30.7542 20.5719 30.7542 20.3051H34.656C34.656 20.3406 34.6605 20.3784 34.6694 20.4185C34.6827 20.454 34.7049 20.4874 34.7361 20.5185C34.7672 20.5452 34.8117 20.5696 34.8695 20.5919C34.9317 20.6097 35.0118 20.6186 35.1096 20.6186C35.2519 20.6186 35.3497 20.5941 35.4031 20.5452C35.4564 20.4918 35.4831 20.4318 35.4831 20.3651C35.4831 20.2984 35.4631 20.2428 35.4231 20.1984C35.3875 20.1539 35.3186 20.1161 35.2163 20.085C35.114 20.0538 34.974 20.0272 34.7961 20.0049C34.6182 19.9827 34.3892 19.9582 34.1091 19.9316C33.4421 19.8693 32.8974 19.7781 32.475 19.6581C32.0526 19.5336 31.7191 19.3624 31.4745 19.1445C31.2299 18.9266 31.061 18.6532 30.9676 18.3241C30.8787 17.9951 30.8342 17.5971 30.8342 17.1302C30.8342 16.5699 30.9365 16.0919 31.141 15.6962C31.35 15.3004 31.6457 14.9781 32.0281 14.729C32.415 14.4756 32.8796 14.2911 33.4221 14.1754C33.9646 14.0554 34.5693 13.9954 35.2363 13.9954C35.9789 13.9954 36.6103 14.0776 37.1306 14.2421C37.6508 14.4022 38.0755 14.629 38.4045 14.9225C38.7336 15.2115 38.9714 15.5561 39.1182 15.9563C39.2694 16.3565 39.345 16.7945 39.345 17.2703H35.5298C35.5253 17.2347 35.5164 17.1991 35.5031 17.1636C35.4898 17.128 35.4675 17.0969 35.4364 17.0702C35.4097 17.0391 35.3675 17.0146 35.3097 16.9968C35.2563 16.979 35.1852 16.9701 35.0962 16.9701C34.9495 16.9701 34.8539 16.999 34.8094 17.0568C34.765 17.1146 34.7427 17.1769 34.7427 17.2436C34.7427 17.3014 34.7605 17.3481 34.7961 17.3837C34.8317 17.4148 34.905 17.4437 35.0162 17.4704C35.1318 17.4926 35.2919 17.5126 35.4964 17.5304C35.7054 17.5437 35.9833 17.5615 36.3302 17.5838C36.9927 17.6238 37.533 17.7149 37.951 17.8572C38.3689 17.9995 38.6958 18.1885 38.9314 18.4242C39.1671 18.6598 39.3272 18.94 39.4117 19.2646C39.5006 19.5847 39.5451 19.9449 39.5451 20.3451C39.5451 20.9187 39.4383 21.41 39.2249 21.8191C39.0115 22.2282 38.7158 22.5662 38.3378 22.833C37.9643 23.0953 37.5219 23.2865 37.0105 23.4066C36.4991 23.5311 35.9433 23.5933 35.343 23.5933Z" fill="#0C0C4F"/>
<path d="M95.9255 2.40747H99.754L101.575 5.48229L101.662 5.48896V2.40747H105.53V11.4785H101.702L99.8608 8.38368H99.7941V11.4785H95.9255V2.40747Z" fill="#0C0C4F"/>
<path d="M90.2894 11.7453C89.4757 11.7453 88.7576 11.6519 88.135 11.4652C87.517 11.2784 86.9989 11.0116 86.581 10.6648C86.1674 10.3135 85.8539 9.89108 85.6405 9.39751C85.4315 8.89949 85.327 8.34144 85.327 7.72337V2.40747H89.7625V6.98968C89.7625 7.25647 89.7981 7.43434 89.8692 7.52327C89.9448 7.60775 90.0471 7.65 90.176 7.65C90.2427 7.65 90.3005 7.6411 90.3494 7.62332C90.4028 7.60553 90.4473 7.5744 90.4828 7.52994C90.5184 7.48103 90.5451 7.41433 90.5629 7.32984C90.5851 7.24091 90.5962 7.12975 90.5962 6.99635V2.40747H95.0317V7.72337C95.0317 8.28364 94.9294 8.80833 94.7249 9.29746C94.5203 9.78658 94.218 10.2135 93.8178 10.5781C93.4176 10.9382 92.9218 11.2228 92.3304 11.4318C91.739 11.6408 91.0587 11.7453 90.2894 11.7453Z" fill="#0C0C4F"/>
<path d="M75.3956 2.40747H80.0112C80.7137 2.40747 81.3496 2.45861 81.9188 2.56088C82.4879 2.66315 82.9726 2.84324 83.3728 3.10114C83.7774 3.35459 84.0887 3.70143 84.3066 4.14164C84.5245 4.58185 84.6334 5.14212 84.6334 5.82245C84.6334 6.08925 84.6045 6.33381 84.5467 6.55614C84.4889 6.77847 84.4111 6.98079 84.3133 7.1631C84.2154 7.34541 84.1043 7.50993 83.9798 7.65667C83.8553 7.79896 83.7285 7.92569 83.5996 8.03685L84.8335 11.4785H80.6115L80.0112 8.87726H79.8644H79.7711V11.4785H75.3956V2.40747ZM80.1913 6.48944C80.3202 6.48944 80.4114 6.44942 80.4647 6.36938C80.5225 6.28934 80.5514 6.14927 80.5514 5.94918C80.5514 5.80689 80.5248 5.68905 80.4714 5.59567C80.4225 5.49785 80.3202 5.44894 80.1646 5.44894H79.7377V6.48944H80.1913Z" fill="#0C0C4F"/>
<path d="M64.8572 2.40747H69.6662C70.3598 2.40747 71.0157 2.4964 71.6338 2.67427C72.2563 2.85213 72.801 3.12782 73.2679 3.50133C73.7348 3.8704 74.1039 4.33951 74.3751 4.90868C74.6463 5.47784 74.782 6.15372 74.782 6.93632C74.782 7.63888 74.6686 8.27252 74.4418 8.83724C74.2195 9.39751 73.8904 9.87329 73.4547 10.2646C73.0233 10.6559 72.492 10.956 71.8606 11.165C71.2291 11.374 70.5043 11.4785 69.6862 11.4785H64.8572V2.40747ZM69.6462 7.74338C69.8329 7.74338 69.9841 7.67223 70.0997 7.52994C70.2153 7.3832 70.2731 7.19422 70.2731 6.963C70.2731 6.72288 70.2153 6.52723 70.0997 6.37605C69.9841 6.22042 69.8329 6.1426 69.6462 6.1426H69.2926V7.74338H69.6462Z" fill="#0C0C4F"/>
<path d="M56.84 2.40747H64.0034V5.34222H61.2754V5.87581H63.4098V8.01017H61.2754V8.54376H64.0634V11.4785H56.84V2.40747Z" fill="#0C0C4F"/>
<path d="M48.8229 2.40747H55.9863V5.34222H53.2583V5.87581H55.3927V8.01017H53.2583V8.54376H56.0464V11.4785H48.8229V2.40747Z" fill="#0C0C4F"/>
<path d="M39.0847 2.40747H43.4535C44.1205 2.40747 44.7363 2.45194 45.301 2.54087C45.8658 2.6298 46.3527 2.79877 46.7617 3.04778C47.1753 3.29234 47.4977 3.63251 47.7289 4.06827C47.9601 4.50404 48.0757 5.07098 48.0757 5.76909C48.0757 6.46721 47.9601 7.03637 47.7289 7.47658C47.4977 7.91235 47.1842 8.25473 46.7884 8.50374C46.3971 8.75275 45.9391 8.92394 45.4144 9.01732C44.8942 9.10626 44.345 9.15072 43.767 9.15072H43.4535V11.4785H39.0847V2.40747ZM43.8804 6.42941C44.0093 6.42941 44.1005 6.38939 44.1538 6.30935C44.2116 6.22931 44.2405 6.08925 44.2405 5.88915C44.2405 5.74686 44.2139 5.62902 44.1605 5.53565C44.1116 5.43782 44.0093 5.38891 43.8537 5.38891H43.4268V6.42941H43.8804Z" fill="#0C0C4F"/>
<path d="M34.3025 11.7454C33.68 11.7454 33.133 11.701 32.6617 11.612C32.1904 11.5231 31.7835 11.403 31.4411 11.2518C31.1032 11.0962 30.823 10.9139 30.6007 10.7049C30.3784 10.4915 30.2005 10.2647 30.0671 10.0246C29.9382 9.78003 29.847 9.52435 29.7937 9.25755C29.7403 8.99076 29.7136 8.72396 29.7136 8.45717H33.6155C33.6155 8.49274 33.62 8.53054 33.6288 8.57056C33.6422 8.60613 33.6644 8.63948 33.6955 8.6706C33.7267 8.69728 33.7711 8.72174 33.8289 8.74397C33.8912 8.76176 33.9712 8.77065 34.0691 8.77065C34.2113 8.77065 34.3092 8.7462 34.3625 8.69728C34.4159 8.64392 34.4426 8.5839 34.4426 8.5172C34.4426 8.4505 34.4226 8.39492 34.3825 8.35045C34.347 8.30598 34.278 8.26819 34.1758 8.23706C34.0735 8.20594 33.9334 8.17926 33.7556 8.15702C33.5777 8.13479 33.3487 8.11033 33.0686 8.08365C32.4016 8.0214 31.8569 7.93025 31.4345 7.81019C31.012 7.68569 30.6785 7.51449 30.434 7.29661C30.1894 7.07873 30.0204 6.80526 29.9271 6.47621C29.8381 6.14717 29.7937 5.7492 29.7937 5.2823C29.7937 4.72203 29.8959 4.24403 30.1005 3.84828C30.3095 3.45253 30.6052 3.13016 30.9876 2.88115C31.3744 2.62769 31.8391 2.44316 32.3816 2.32755C32.9241 2.20749 33.5288 2.14746 34.1958 2.14746C34.9384 2.14746 35.5698 2.22972 36.09 2.39425C36.6103 2.55432 37.0349 2.7811 37.364 3.07457C37.693 3.3636 37.9309 3.70821 38.0777 4.10841C38.2288 4.5086 38.3044 4.94659 38.3044 5.42237H34.4893C34.4848 5.3868 34.4759 5.35123 34.4626 5.31565C34.4492 5.28008 34.427 5.24896 34.3959 5.22228C34.3692 5.19115 34.327 5.16669 34.2692 5.14891C34.2158 5.13112 34.1446 5.12223 34.0557 5.12223C33.909 5.12223 33.8134 5.15113 33.7689 5.20894C33.7244 5.26674 33.7022 5.32899 33.7022 5.39569C33.7022 5.4535 33.72 5.50019 33.7556 5.53576C33.7911 5.56689 33.8645 5.59579 33.9757 5.62247C34.0913 5.6447 34.2514 5.66471 34.4559 5.6825C34.6649 5.69584 34.9428 5.71362 35.2896 5.73586C35.9522 5.77588 36.4924 5.86703 36.9104 6.00932C37.3284 6.15161 37.6552 6.34059 37.8909 6.57626C38.1266 6.81193 38.2866 7.09207 38.3711 7.41667C38.4601 7.73682 38.5045 8.09699 38.5045 8.49719C38.5045 9.0708 38.3978 9.56214 38.1844 9.97123C37.9709 10.3803 37.6752 10.7183 37.2973 10.9851C36.9238 11.2474 36.4813 11.4386 35.97 11.5587C35.4586 11.6832 34.9028 11.7454 34.3025 11.7454Z" fill="#0C0C4F"/>
<defs>
<linearGradient id="paint0_linear_296_36" x1="21.7696" y1="9.14029" x2="4.50897" y2="18.7916" gradientUnits="userSpaceOnUse">
<stop stop-color="#EC796B"/>
<stop offset="1" stop-color="#E175B1"/>
</linearGradient>
<linearGradient id="paint1_linear_296_36" x1="20.0321" y1="17.2664" x2="17.2167" y2="17.5661" gradientUnits="userSpaceOnUse">
<stop stop-color="#EC796B"/>
<stop offset="1" stop-color="#E175B1"/>
</linearGradient>
<clipPath id="clip0_296_36">
<rect width="24.7148" height="24.7148" fill="white" transform="translate(-0.0012207 0.512939)"/>
</clipPath>
</defs>
</svg>
