<svg xmlns="http://www.w3.org/2000/svg" width="47" height="47" viewBox="0 0 47 47" fill="none">
  <path d="M23.5 14.127H25.4167V16.0437H21.5833V14.127H19.6667V12.2104H15.8333V14.127H12V12.2104H13.9167V10.2937H21.5833V12.2104H23.5V14.127Z" fill="black"/>
  <path d="M25.4166 25.6271V27.5438H19.6666V25.6271H15.8333V23.7104H21.5833V25.6271H25.4166Z" fill="black"/>
  <path d="M19.6666 16.0437H15.8333V19.877H19.6666V16.0437Z" fill="black"/>
  <path d="M31.1666 17.9604H27.3333V21.7938H31.1666V17.9604Z" fill="black"/>
  <path d="M36.9167 16.0439V19.8772H35V17.9605H33.0833V16.0439H29.25V14.1272H35V16.0439H36.9167Z" fill="black"/>
  <path d="M27.3334 29.4604V33.2938H25.4167V35.2104H21.5834V39.0438H19.6667V42.8771H17.7501V44.7938H10.0834V42.8771H8.16675V31.3771H10.0834V29.4604H12.0001V35.2104H15.8334V33.2938H19.6667V31.3771H23.5001V29.4604H27.3334Z" fill="black"/>
  <path d="M44.5834 17.9605V29.4605H42.6667V33.2939H40.7501V37.1272H38.8334V39.0439H36.9167V40.9605H33.0834V42.8772H29.2501V44.7939H21.5834V40.9605H29.2501V39.0439H33.0834V37.1272H35.0001V35.2105H36.9167V33.2939H38.8334V29.4605H40.7501V17.9605H38.8334V14.1272H36.9167V12.2105H35.0001V10.2939H33.0834V8.3772H29.2501V6.46053H17.7501V8.3772H13.9167V10.2939H12.0001V12.2105H10.0834V14.1272H8.16675V17.9605H6.25008V27.5439H8.16675V29.4605H6.25008V31.3772H4.33341V29.4605H2.41675V17.9605H4.33341V14.1272H6.25008V10.2939H8.16675V8.3772H10.0834V6.46053H13.9167V4.54386H17.7501V2.6272H29.2501V4.54386H33.0834V6.46053H36.9167V8.3772H38.8334V10.2939H40.7501V14.1272H42.6667V17.9605H44.5834Z" fill="black"/>
</svg>