<svg xmlns="http://www.w3.org/2000/svg" width="48" height="48" viewBox="0 0 48 48" fill="none">
  <path d="M0 5.71509V42.2851H48V5.71509H0ZM11.415 39.9901H2.28V7.99509H11.415V39.9901ZM34.275 39.9901H13.71V7.99509H34.275V39.9901ZM45.705 39.9901H36.57V7.99509H45.705V39.9901Z" fill="black"/>
  <path d="M43.4251 30.855H38.8501V35.43H43.4251V30.855Z" fill="black"/>
  <path d="M43.4251 21.7051H38.8501V26.2801H43.4251V21.7051Z" fill="black"/>
  <path d="M43.4251 12.5701H38.8501V17.1451H43.4251V12.5701Z" fill="black"/>
  <path d="M22.8449 28.5751H25.1399V26.2801H27.4199V24.0001H29.6999V21.7051H27.4199V19.4251H25.1399V17.1451H22.8449V14.8501H18.2849V30.8551H22.8449V28.5751Z" fill="#4D58FF"/>
  <path d="M9.13506 30.855H4.56006V35.43H9.13506V30.855Z" fill="black"/>
  <path d="M9.13506 21.7051H4.56006V26.2801H9.13506V21.7051Z" fill="black"/>
  <path d="M9.13506 12.5701H4.56006V17.1451H9.13506V12.5701Z" fill="black"/>
</svg>